# xmcd CD database file
#
# Track frame offsets:
#	150
#	12715
#	28588
#	45233
#	60573
#	73289
#	85563
#	97847
#	112891
#	123216
#	135378
#	148457
#	164386
#	177382
#	190515
#	201085
#	214600
#	229358
#	242616
#	255502
#
# Disc length: 3677 seconds
#
# Revision: 3
# Processed by: cddbd v1.5.2PL0 Copyright (c) Steve Scherf et al.
# Submitted via: CDex 1.40Beta9
#
DISCID=0f0e5b14
DTITLE=Various Artist - Northern Soul 70's Floorshakers
DYEAR=1900
DGENRE=Northern Soul
TTITLE0=Continental Four - Heaven Must Have Sent You
TTITLE1=Larry Saunders - On The Real Side
TTITLE2=(Baltimore) First Class - Filled With Desire
TTITLE3=Eloise Laws - Love Factory
TTITLE4=Silent Majority - Something New About You
TTITLE5=Honey Cone - It's Better To have Loved And Lost
TTITLE6=Warlock - You've Been My Rock
TTITLE7=Soul Train Gang - Country Girl
TTITLE8=Willie and The Mighty Magnificients - Check It Baby
TTITLE9=Frankie 'Love Man' Crocker - Ton Of Dynamite
TTITLE10=Barbara Jean English - I'm Living A Lie
TTITLE11=Flaming Ember - Westbound No. 9
TTITLE12=Politicians - Love Machine
TTITLE13=Freda Payne - Band Of Gold
TTITLE14=Eighth Day - Eeny Meeny Miny Mo
TTITLE15=Tyrone Edwards - Can't Get Enough Of You
TTITLE16=Whispers - I've Got A Feeling
TTITLE17=Chuck Jackson - I've Got The Need
TTITLE18=Danny Woods - Rollercoaster
TTITLE19=Moments - Nine Times
EXTD=
EXTT0=
EXTT1=
EXTT2=
EXTT3=
EXTT4=
EXTT5=
EXTT6=
EXTT7=
EXTT8=
EXTT9=
EXTT10=
EXTT11=
EXTT12=
EXTT13=
EXTT14=
EXTT15=
EXTT16=
EXTT17=
EXTT18=
EXTT19=
PLAYORDER=
